<?xml version="1.0" encoding="UTF-8"?>
<!DOCTYPE svg PUBLIC "-//W3C//DTD SVG 1.1//EN" "http://www.w3.org/Graphics/SVG/1.1/DTD/svg11.dtd">
<!-- Creator: CorelDRAW -->
<svg xmlns="http://www.w3.org/2000/svg" xml:space="preserve" width="5.62156in" height="1.25in" version="1.1" style="shape-rendering:geometricPrecision; text-rendering:geometricPrecision; image-rendering:optimizeQuality; fill-rule:evenodd; clip-rule:evenodd"
viewBox="0 0 3549.56 789.28"
 xmlns:xlink="http://www.w3.org/1999/xlink"
 xmlns:xodm="http://www.corel.com/coreldraw/odm/2003">
 <defs>
  <style type="text/css">
   <![CDATA[
    .fil1 {fill:#5D6532}
    .fil0 {fill:black;fill-rule:nonzero}
   ]]>
  </style>
 </defs>
 <g id="Layer_x0020_1">
  <metadata id="CorelCorpID_0Corel-Layer"/>
  <path class="fil0" d="M996.54 356.29c0,4.93 -2.47,7.4 -7.4,7.4l-49.94 0c-4.93,0 -7.4,-2.47 -7.4,-7.4l0 -245.06c0,-4.93 2.47,-7.4 7.4,-7.4l57.11 0c3.96,0 6.94,1.61 8.89,4.82l88.59 142.02 0 -139.44c0,-4.93 2.47,-7.4 7.4,-7.4l49.94 0c4.93,0 7.4,2.47 7.4,7.4l0 245.06c0,4.93 -2.46,7.4 -7.4,7.4l-50.86 0c-3.78,0 -6.76,-1.61 -8.83,-4.82l-94.89 -150.17 0 147.59zm518.14 -1.09c0.35,1.09 0.52,2.12 0.52,3.1 0,1.78 -0.52,3.09 -1.66,4.01 -1.09,0.92 -2.64,1.38 -4.59,1.38l-53.27 0c-4.24,0 -7,-2.01 -8.37,-6.08l-11.81 -34.63 -93.23 0 -11.81 34.63c-1.26,4.07 -4.01,6.08 -8.31,6.08l-53.09 0c-2.01,0 -3.55,-0.46 -4.7,-1.38 -1.2,-0.92 -1.78,-2.23 -1.78,-4.01 0,-0.97 0.17,-2.01 0.57,-3.1l94.66 -245.86c1.49,-3.9 4.3,-5.91 8.54,-5.91l45.64 0c4.19,0 7.05,2.01 8.54,5.91l94.15 245.86zm-97.87 -87.67l-24.77 -72.88 -3.33 -11.87 -2.81 11.87 -24.77 72.88 55.67 0zm174.69 88.76c0,4.93 -2.47,7.4 -7.4,7.4l-49.94 0c-4.93,0 -7.4,-2.47 -7.4,-7.4l0 -245.06c0,-4.93 2.47,-7.4 7.4,-7.4l57.11 0c3.96,0 6.94,1.61 8.89,4.82l88.59 142.02 0 -139.44c0,-4.93 2.47,-7.4 7.4,-7.4l49.94 0c4.93,0 7.4,2.47 7.4,7.4l0 245.06c0,4.93 -2.46,7.4 -7.4,7.4l-50.86 0c-3.78,0 -6.76,-1.61 -8.83,-4.82l-94.89 -150.17 0 147.59zm202.04 7.4c-4.93,0 -7.4,-2.47 -7.4,-7.4l0 -245.06c0,-4.93 2.47,-7.4 7.4,-7.4l90.42 0c25.17,0 48.16,5.68 69.09,17.03 20.87,11.3 37.44,26.89 49.54,46.67 12.16,19.78 18.23,41.86 18.23,66.11 0,24.31 -6.02,46.38 -18.12,66.22 -12.1,19.84 -28.55,35.43 -49.37,46.79 -20.87,11.35 -43.81,17.03 -68.8,17.03l-90.99 0zm93.17 -63.82c12.73,0 24.14,-2.75 34.23,-8.32 10.15,-5.56 18.06,-13.36 23.8,-23.39 5.73,-10.04 8.6,-21.56 8.6,-34.52 0,-12.67 -2.87,-24.08 -8.6,-34.12 -5.73,-10.03 -13.7,-17.89 -23.85,-23.51 -10.2,-5.56 -21.61,-8.37 -34.35,-8.37l-33.83 0 0 132.22 34 0zm312.88 56.42c0,4.93 -2.47,7.4 -7.4,7.4l-51.77 0c-4.93,0 -7.4,-2.47 -7.4,-7.4l0 -245.06c0,-4.93 2.47,-7.4 7.4,-7.4l51.77 0c4.93,0 7.4,2.47 7.4,7.4l0 84.69 94.89 0 0 -84.69c0,-4.93 2.47,-7.4 7.4,-7.4l51.78 0c4.93,0 7.4,2.47 7.4,7.4l0 245.06c0,4.93 -2.47,7.4 -7.4,7.4l-51.78 0c-4.93,0 -7.4,-2.47 -7.4,-7.4l0 -96.73 -94.89 0 0 96.73z"/>
  <path class="fil1" d="M-0 0l789.28 0 0 789.28 -789.28 0 0 -789.28zm482.34 151.03l155.91 0 0 487.21 -155.91 0 0 -487.21zm-331.3 0l155.91 0 0 487.21 -155.91 0 0 -487.21z"/>
  <g id="_2762179728592">
   <path class="fil0" d="M1025.47 702.9c-19.2,0 -36.78,-4.66 -52.8,-13.95 -16.01,-9.33 -28.66,-21.98 -37.9,-38.04 -9.28,-16.1 -13.91,-33.78 -13.91,-53.07 0,-19.29 4.62,-36.96 13.91,-53.02 9.24,-16.06 21.89,-28.71 37.9,-37.99 16.01,-9.24 33.6,-13.86 52.8,-13.86 12.25,0 23.86,1.88 34.76,5.61 10.9,3.77 20.77,9.15 29.65,16.06 1.62,1.39 2.47,2.78 2.47,4.22 0,1.08 -0.54,2.38 -1.62,3.9l-8.07 10.72c-1.39,1.62 -2.78,2.47 -4.22,2.47 -1.26,0 -2.56,-0.54 -3.9,-1.61 -7.13,-5.11 -14.85,-9.11 -23.15,-12.02 -8.3,-2.87 -16.96,-4.31 -25.93,-4.31 -14.09,0 -27.09,3.5 -39.07,10.54 -11.93,7.04 -21.44,16.69 -28.49,28.93 -7.04,12.25 -10.58,25.75 -10.58,40.51 0,14.67 3.54,28.13 10.58,40.33 7.04,12.2 16.55,21.8 28.49,28.84 11.98,7.04 24.99,10.58 39.07,10.58 9.2,0 17.76,-1.43 25.79,-4.26 7.98,-2.87 15.79,-7.13 23.42,-12.83 1.34,-0.85 2.56,-1.3 3.63,-1.3 1.75,0 3.23,0.81 4.48,2.47l8.07 10.72c1.08,1.52 1.62,2.87 1.62,4.04 0,1.34 -0.67,2.56 -2.02,3.63 -9.06,7.13 -19.11,12.69 -30.1,16.69 -10.99,4.04 -22.65,6.01 -34.9,6.01zm174.84 0c-19.2,0 -36.78,-4.66 -52.8,-13.95 -16.01,-9.33 -28.66,-21.98 -37.9,-38.04 -9.28,-16.1 -13.91,-33.78 -13.91,-53.07 0,-19.29 4.62,-36.96 13.91,-53.02 9.24,-16.06 21.89,-28.71 37.9,-37.99 16.01,-9.24 33.6,-13.86 52.8,-13.86 19.29,0 36.96,4.62 52.98,13.86 16.01,9.29 28.66,21.94 37.9,37.99 9.28,16.06 13.9,33.73 13.9,53.02 0,19.29 -4.62,36.96 -13.9,53.07 -9.24,16.06 -21.89,28.71 -37.9,38.04 -16.01,9.29 -33.69,13.95 -52.98,13.95zm0 -25.16c14.22,0 27.27,-3.54 39.25,-10.58 11.93,-7.04 21.44,-16.64 28.48,-28.75 7.04,-12.16 10.59,-25.61 10.59,-40.42 0,-14.76 -3.54,-28.26 -10.59,-40.51 -7.04,-12.25 -16.55,-21.89 -28.48,-28.93 -11.98,-7.04 -25.03,-10.54 -39.25,-10.54 -14.09,0 -27.09,3.5 -39.07,10.54 -11.93,7.04 -21.44,16.69 -28.49,28.93 -7.04,12.25 -10.58,25.75 -10.58,40.51 0,14.67 3.54,28.13 10.58,40.33 7.04,12.2 16.55,21.8 28.49,28.84 11.98,7.04 24.99,10.58 39.07,10.58zm157.34 16.06c0,3.86 -1.93,5.79 -5.79,5.79l-14.49 0c-3.86,0 -5.79,-1.93 -5.79,-5.79l0 -191.72c0,-3.86 1.93,-5.79 5.79,-5.79l16.64 0c1.52,0 2.87,0.27 3.9,0.76 1.08,0.54 2.06,1.43 3.05,2.69l115.78 157.14 0 -154.8c0,-3.86 1.93,-5.79 5.79,-5.79l14.44 0c3.86,0 5.79,1.93 5.79,5.79l0 191.72c0,3.86 -1.93,5.79 -5.79,5.79l-15.21 0c-1.52,0 -2.83,-0.27 -3.9,-0.81 -1.03,-0.54 -2.06,-1.39 -3.01,-2.64l-117.21 -158.89 0 156.55zm245.4 8.52c-14.67,0 -28.71,-2.69 -42.08,-8.16 -13.41,-5.43 -24.85,-13.32 -34.32,-23.64 -1.17,-1.39 -1.75,-2.6 -1.75,-3.77 0,-1.48 0.76,-2.92 2.2,-4.35l8.84 -9.24c1.21,-1.26 2.56,-1.88 3.9,-1.88 1.43,0 2.83,0.72 4.17,2.15 7.63,7.62 16.64,13.5 27,17.67 10.36,4.13 20.99,6.19 31.89,6.19 8.97,0 16.96,-1.26 23.95,-3.81 7,-2.56 12.47,-6.42 16.51,-11.53 3.99,-5.11 6.01,-11.3 6.01,-18.66 0,-7.22 -2.2,-13.14 -6.55,-17.72 -4.31,-4.58 -10.09,-8.25 -17.27,-11.08 -7.18,-2.78 -17.22,-5.92 -30.19,-9.37 -12.42,-3.19 -23.06,-6.77 -31.89,-10.72 -8.83,-3.95 -16.28,-9.69 -22.34,-17.14 -6.1,-7.49 -9.15,-17.14 -9.15,-28.89 0,-10.63 2.87,-20.05 8.61,-28.35 5.74,-8.3 13.9,-14.8 24.49,-19.56 10.54,-4.71 22.74,-7.09 36.51,-7.09 11.98,0 23.55,1.97 34.81,5.88 11.21,3.9 21.17,9.42 29.88,16.55 1.53,1.17 2.33,2.51 2.33,4.08 0,1.35 -0.58,2.69 -1.75,4.04l-8.12 10.14c-1.26,1.52 -2.65,2.29 -4.17,2.29 -1.26,0 -2.56,-0.54 -3.9,-1.57 -6.51,-5.11 -13.95,-9.11 -22.39,-12.02 -8.43,-2.87 -16.96,-4.35 -25.52,-4.35 -8.3,0 -15.84,1.21 -22.65,3.63 -6.82,2.42 -12.16,5.92 -16.15,10.54 -3.95,4.67 -5.92,10.18 -5.92,16.64 0,6.68 2.11,12.07 6.28,16.24 4.22,4.13 9.47,7.4 15.79,9.82 6.32,2.42 15.52,5.25 27.59,8.52 14.62,4.35 26.64,8.66 36.02,12.96 9.33,4.31 17,10.14 23.01,17.59 5.97,7.45 8.97,16.87 8.97,28.35 0,12.38 -3.19,23.06 -9.56,32.07 -6.37,9.02 -15.07,15.88 -26.06,20.55 -10.99,4.66 -23.33,7 -37.05,7zm163.4 -8.52c0,3.86 -1.93,5.79 -5.79,5.79l-14.44 0c-3.9,0 -5.83,-1.93 -5.83,-5.79l0 -173.64 -59.17 0c-3.86,0 -5.79,-1.93 -5.79,-5.79l0 -12.29c0,-3.86 1.93,-5.79 5.79,-5.79l144.4 0c3.86,0 5.79,1.93 5.79,5.79l0 12.29c0,3.86 -1.93,5.79 -5.79,5.79l-59.17 0 0 173.64zm90.19 5.79c-3.86,0 -5.79,-1.93 -5.79,-5.79l0 -191.72c0,-3.86 1.93,-5.79 5.79,-5.79l74.1 0c13.59,0 25.53,2.69 35.8,8.16 10.27,5.43 18.26,13.1 23.86,23.01 5.65,9.87 8.48,21.4 8.48,34.49 0,14.09 -3.18,26.06 -9.6,35.89 -6.46,9.87 -15.34,17.32 -26.74,22.43l34.45 72.49c0.49,1.17 0.72,2.15 0.72,2.92 0,1.17 -0.45,2.11 -1.34,2.83 -0.94,0.72 -2.16,1.08 -3.72,1.08l-17.05 0c-3.18,0 -5.47,-1.43 -6.82,-4.35l-31.27 -68.28c-4.8,0.45 -9.24,0.72 -13.28,0.72l-47.33 0 0 66.12c0,3.86 -1.93,5.79 -5.79,5.79l-14.49 0zm71.77 -95.77c8.88,0 16.64,-1.75 23.28,-5.16 6.68,-3.41 11.84,-8.3 15.52,-14.62 3.63,-6.33 5.47,-13.68 5.47,-22.07 0,-8.57 -1.84,-16.01 -5.47,-22.34 -3.68,-6.32 -8.88,-11.12 -15.56,-14.49 -6.73,-3.32 -14.4,-4.98 -23.1,-4.98l-51.63 0 0 83.66 51.5 0zm172.23 99.67c-17.54,0 -32.61,-3.81 -45.22,-11.44 -12.6,-7.62 -22.16,-18.17 -28.71,-31.62 -6.59,-13.46 -9.87,-28.84 -9.87,-46.2l0 -112.28c0,-3.86 1.93,-5.78 5.78,-5.78l14.49 0c3.86,0 5.79,1.93 5.79,5.78l0 109.81c0,13.1 2.2,24.72 6.64,34.72 4.44,10.05 10.99,17.9 19.69,23.5 8.66,5.65 19.15,8.48 31.4,8.48 12.25,0 22.7,-2.78 31.31,-8.39 8.66,-5.61 15.21,-13.46 19.6,-23.51 4.44,-10.09 6.68,-21.71 6.68,-34.81l0 -109.81c0,-3.86 1.93,-5.78 5.79,-5.78l14.44 0c3.86,0 5.79,1.93 5.79,5.78l0 112.28c0,17.36 -3.27,32.74 -9.82,46.2 -6.55,13.46 -16.15,24 -28.71,31.62 -12.6,7.63 -27.63,11.44 -45.08,11.44zm209.11 -0.58c-19.2,0 -36.78,-4.66 -52.8,-13.95 -16.01,-9.33 -28.66,-21.98 -37.9,-38.04 -9.28,-16.1 -13.91,-33.78 -13.91,-53.07 0,-19.29 4.62,-36.96 13.91,-53.02 9.24,-16.06 21.89,-28.71 37.9,-37.99 16.01,-9.24 33.6,-13.86 52.8,-13.86 12.25,0 23.86,1.88 34.76,5.61 10.9,3.77 20.77,9.15 29.65,16.06 1.62,1.39 2.47,2.78 2.47,4.22 0,1.08 -0.54,2.38 -1.62,3.9l-8.07 10.72c-1.39,1.62 -2.78,2.47 -4.22,2.47 -1.26,0 -2.56,-0.54 -3.9,-1.61 -7.13,-5.11 -14.85,-9.11 -23.15,-12.02 -8.3,-2.87 -16.96,-4.31 -25.93,-4.31 -14.09,0 -27.09,3.5 -39.07,10.54 -11.93,7.04 -21.44,16.69 -28.49,28.93 -7.04,12.25 -10.58,25.75 -10.58,40.51 0,14.67 3.54,28.13 10.58,40.33 7.04,12.2 16.55,21.8 28.49,28.84 11.98,7.04 24.99,10.58 39.07,10.58 9.2,0 17.76,-1.43 25.79,-4.26 7.98,-2.87 15.79,-7.13 23.42,-12.83 1.34,-0.85 2.56,-1.3 3.63,-1.3 1.75,0 3.23,0.81 4.48,2.47l8.07 10.72c1.08,1.52 1.62,2.87 1.62,4.04 0,1.34 -0.67,2.56 -2.02,3.63 -9.06,7.13 -19.11,12.69 -30.1,16.69 -10.99,4.04 -22.65,6.01 -34.9,6.01zm160.53 -9.11c0,3.86 -1.93,5.79 -5.79,5.79l-14.44 0c-3.9,0 -5.83,-1.93 -5.83,-5.79l0 -173.64 -59.17 0c-3.86,0 -5.79,-1.93 -5.79,-5.79l0 -12.29c0,-3.86 1.93,-5.79 5.79,-5.79l144.4 0c3.86,0 5.79,1.93 5.79,5.79l0 12.29c0,3.86 -1.93,5.79 -5.79,5.79l-59.17 0 0 173.64zm110.47 0c0,3.86 -1.93,5.79 -5.79,5.79l-14.49 0c-3.86,0 -5.79,-1.93 -5.79,-5.79l0 -191.72c0,-3.86 1.93,-5.79 5.79,-5.79l14.49 0c3.86,0 5.79,1.93 5.79,5.79l0 191.72zm131.1 9.11c-19.2,0 -36.78,-4.66 -52.8,-13.95 -16.01,-9.33 -28.66,-21.98 -37.9,-38.04 -9.28,-16.1 -13.91,-33.78 -13.91,-53.07 0,-19.29 4.62,-36.96 13.91,-53.02 9.24,-16.06 21.89,-28.71 37.9,-37.99 16.01,-9.24 33.6,-13.86 52.8,-13.86 19.29,0 36.96,4.62 52.98,13.86 16.01,9.29 28.66,21.94 37.9,37.99 9.28,16.06 13.9,33.73 13.9,53.02 0,19.29 -4.62,36.96 -13.9,53.07 -9.24,16.06 -21.89,28.71 -37.9,38.04 -16.01,9.29 -33.69,13.95 -52.98,13.95zm0 -25.16c14.22,0 27.27,-3.54 39.25,-10.58 11.93,-7.04 21.44,-16.64 28.48,-28.75 7.04,-12.16 10.59,-25.61 10.59,-40.42 0,-14.76 -3.54,-28.26 -10.59,-40.51 -7.04,-12.25 -16.55,-21.89 -28.48,-28.93 -11.98,-7.04 -25.03,-10.54 -39.25,-10.54 -14.09,0 -27.09,3.5 -39.07,10.54 -11.93,7.04 -21.44,16.69 -28.49,28.93 -7.04,12.25 -10.58,25.75 -10.58,40.51 0,14.67 3.54,28.13 10.58,40.33 7.04,12.2 16.55,21.8 28.49,28.84 11.98,7.04 24.99,10.58 39.07,10.58zm157.34 16.06c0,3.86 -1.93,5.79 -5.79,5.79l-14.49 0c-3.86,0 -5.79,-1.93 -5.79,-5.79l0 -191.72c0,-3.86 1.93,-5.79 5.79,-5.79l16.64 0c1.52,0 2.87,0.27 3.9,0.76 1.08,0.54 2.06,1.43 3.05,2.69l115.78 157.14 0 -154.8c0,-3.86 1.93,-5.79 5.79,-5.79l14.44 0c3.86,0 5.79,1.93 5.79,5.79l0 191.72c0,3.86 -1.93,5.79 -5.79,5.79l-15.21 0c-1.52,0 -2.83,-0.27 -3.9,-0.81 -1.03,-0.54 -2.06,-1.39 -3.01,-2.64l-117.21 -158.89 0 156.55zm352.92 9.11c-19.2,0 -36.78,-4.66 -52.8,-13.95 -16.01,-9.33 -28.66,-21.98 -37.9,-38.04 -9.28,-16.1 -13.91,-33.78 -13.91,-53.07 0,-19.29 4.62,-36.96 13.91,-53.02 9.24,-16.06 21.89,-28.71 37.9,-37.99 16.01,-9.24 33.6,-13.86 52.8,-13.86 12.25,0 23.86,1.88 34.76,5.61 10.9,3.77 20.77,9.15 29.65,16.06 1.62,1.39 2.47,2.78 2.47,4.22 0,1.08 -0.54,2.38 -1.62,3.9l-8.07 10.72c-1.39,1.62 -2.78,2.47 -4.22,2.47 -1.26,0 -2.56,-0.54 -3.9,-1.61 -7.13,-5.11 -14.85,-9.11 -23.15,-12.02 -8.3,-2.87 -16.96,-4.31 -25.93,-4.31 -14.09,0 -27.09,3.5 -39.07,10.54 -11.93,7.04 -21.44,16.69 -28.49,28.93 -7.04,12.25 -10.58,25.75 -10.58,40.51 0,14.67 3.54,28.13 10.58,40.33 7.04,12.2 16.55,21.8 28.49,28.84 11.98,7.04 24.99,10.58 39.07,10.58 9.2,0 17.76,-1.43 25.79,-4.26 7.98,-2.87 15.79,-7.13 23.42,-12.83 1.34,-0.85 2.56,-1.3 3.63,-1.3 1.75,0 3.23,0.81 4.48,2.47l8.07 10.72c1.08,1.52 1.62,2.87 1.62,4.04 0,1.34 -0.67,2.56 -2.02,3.63 -9.06,7.13 -19.11,12.69 -30.1,16.69 -10.99,4.04 -22.65,6.01 -34.9,6.01zm174.84 0c-19.2,0 -36.78,-4.66 -52.8,-13.95 -16.01,-9.33 -28.66,-21.98 -37.9,-38.04 -9.28,-16.1 -13.91,-33.78 -13.91,-53.07 0,-19.29 4.62,-36.96 13.91,-53.02 9.24,-16.06 21.89,-28.71 37.9,-37.99 16.01,-9.24 33.6,-13.86 52.8,-13.86 19.29,0 36.96,4.62 52.98,13.86 16.01,9.29 28.66,21.94 37.9,37.99 9.28,16.06 13.9,33.73 13.9,53.02 0,19.29 -4.62,36.96 -13.9,53.07 -9.24,16.06 -21.89,28.71 -37.9,38.04 -16.01,9.29 -33.69,13.95 -52.98,13.95zm0 -25.16c14.22,0 27.27,-3.54 39.25,-10.58 11.93,-7.04 21.44,-16.64 28.48,-28.75 7.04,-12.16 10.59,-25.61 10.59,-40.42 0,-14.76 -3.54,-28.26 -10.59,-40.51 -7.04,-12.25 -16.55,-21.89 -28.48,-28.93 -11.98,-7.04 -25.03,-10.54 -39.25,-10.54 -14.09,0 -27.09,3.5 -39.07,10.54 -11.93,7.04 -21.44,16.69 -28.49,28.93 -7.04,12.25 -10.58,25.75 -10.58,40.51 0,14.67 3.54,28.13 10.58,40.33 7.04,12.2 16.55,21.8 28.49,28.84 11.98,7.04 24.99,10.58 39.07,10.58z"/>
   <circle class="fil1" cx="3528.47" cy="684.57" r="21.09"/>
  </g>
 </g>
</svg>
